<?xml version="1.0" encoding="UTF-8" standalone="no"?>
<svg
   xmlns:dc="http://purl.org/dc/elements/1.1/"
   xmlns:cc="http://creativecommons.org/ns#"
   xmlns:rdf="http://www.w3.org/1999/02/22-rdf-syntax-ns#"
   xmlns:svg="http://www.w3.org/2000/svg"
   xmlns="http://www.w3.org/2000/svg"
   xmlns:sodipodi="http://sodipodi.sourceforge.net/DTD/sodipodi-0.dtd"
   xmlns:inkscape="http://www.inkscape.org/namespaces/inkscape"
   width="9.14256mm"
   height="9.14256mm"
   viewBox="0 0 9.1425599 9.14256"
   version="1.1"
   id="svg8"
   inkscape:version="1.0.1 (3bc2e813f5, 2020-09-07)"
   sodipodi:docname="favicon.svg"
   inkscape:export-filename="/home/ryzen4600h/Documents/Projekte/Website/logo.png"
   inkscape:export-xdpi="333.76227"
   inkscape:export-ydpi="333.76227">
  <defs
     id="defs2" />
  <sodipodi:namedview
     id="base"
     pagecolor="#ffffff"
     bordercolor="#666666"
     borderopacity="1.0"
     inkscape:pageopacity="0.0"
     inkscape:pageshadow="2"
     inkscape:zoom="14.500464"
     inkscape:cx="19.812577"
     inkscape:cy="18.28224"
     inkscape:document-units="mm"
     inkscape:current-layer="text835"
     inkscape:document-rotation="0"
     showgrid="false"
     inkscape:window-width="1920"
     inkscape:window-height="1017"
     inkscape:window-x="0"
     inkscape:window-y="33"
     inkscape:window-maximized="1"
     fit-margin-top="0"
     fit-margin-left="0"
     fit-margin-right="0"
     fit-margin-bottom="0" />
  <metadata
     id="metadata5">
    <rdf:RDF>
      <cc:Work
         rdf:about="">
        <dc:format>image/svg+xml</dc:format>
        <dc:type
           rdf:resource="http://purl.org/dc/dcmitype/StillImage" />
        <dc:title></dc:title>
      </cc:Work>
    </rdf:RDF>
  </metadata>
  <g
     inkscape:label="Layer 1"
     inkscape:groupmode="layer"
     id="layer1"
     transform="translate(-18.377176,-33.469781)">
    <g
       aria-label="AVOSS"
       id="text835"
       style="font-style:normal;font-variant:normal;font-weight:normal;font-stretch:normal;font-size:10.5833px;line-height:1.25;font-family:'Quicksand Light';-inkscape-font-specification:'Quicksand Light, Normal';font-variant-ligatures:normal;font-variant-caps:normal;font-variant-numeric:normal;font-variant-east-asian:normal;fill:#000000;fill-opacity:1;stroke:none;stroke-width:0.265;stroke-miterlimit:4;stroke-dasharray:none">
      <path
         d="m 24.497868,41.413501 c 0.0071,0.02117 0.01058,0.04939 0.01058,0.08467 0,0.0635 -0.02117,0.112889 -0.0635,0.148167 -0.04233,0.03528 -0.09525,0.05292 -0.15875,0.05292 -0.04939,0 -0.09525,-0.01058 -0.137583,-0.03175 -0.03528,-0.02822 -0.05997,-0.0635 -0.07408,-0.105833 l -0.888997,-2.18016 v 0 l -3.534825,0.02117 -0.857247,2.158993 c -0.03528,0.09172 -0.09878,0.137583 -0.1905,0.137583 -0.0635,0 -0.116416,-0.01764 -0.158749,-0.05292 -0.03528,-0.03528 -0.05645,-0.07761 -0.0635,-0.127 -0.0071,-0.02822 -0.0035,-0.0635 0.01058,-0.105833 l 2.846908,-7.006144 c 0.02117,-0.05645 0.04586,-0.09172 0.07408,-0.105833 0.03528,-0.02117 0.07761,-0.03175 0.126999,-0.03175 0.105833,0 0.176389,0.04586 0.211666,0.137583 z M 19.82005,38.979342 h 3.206739 l -1.619244,-3.989904 z"
         style="fill:#40b4ce;fill-opacity:1;stroke-width:0.265;stroke-miterlimit:4;stroke-dasharray:none;paint-order:markers stroke fill"
         id="path915"
         sodipodi:nodetypes="csssccccccscccccscccccc" />
      <path
         d="m 27.308074,34.29094 q 0.09525,0 0.148166,0.05292 0.0635,0.05292 0.0635,0.137583 0,0.04233 -0.02117,0.105833 l -2.899824,6.974394 q -0.0635,0.137583 -0.201082,0.137583 -0.0635,0 -0.127,-0.03175 -0.05292,-0.04233 -0.07408,-0.105833 l -2.878658,-6.942644 q -0.03175,-0.0635 -0.03175,-0.127 0,-0.08467 0.05292,-0.137583 0.0635,-0.0635 0.148166,-0.0635 0.15875,0 0.232833,0.169333 l 2.688158,6.466396 2.698741,-6.498146 q 0.07408,-0.137583 0.201083,-0.137583 z"
         style="fill:#40b4ce;fill-opacity:1;stroke-width:0.265;stroke-miterlimit:4;stroke-dasharray:none;paint-order:markers stroke fill"
         id="path917" />
    </g>
  </g>
</svg>
