<?xml version="1.0" encoding="UTF-8" standalone="no"?>
<svg
   xmlns:dc="http://purl.org/dc/elements/1.1/"
   xmlns:cc="http://creativecommons.org/ns#"
   xmlns:rdf="http://www.w3.org/1999/02/22-rdf-syntax-ns#"
   xmlns:svg="http://www.w3.org/2000/svg"
   xmlns="http://www.w3.org/2000/svg"
   xmlns:sodipodi="http://sodipodi.sourceforge.net/DTD/sodipodi-0.dtd"
   xmlns:inkscape="http://www.inkscape.org/namespaces/inkscape"
   width="29.642481mm"
   height="7.6199789mm"
   viewBox="0 0 29.642481 7.6199789"
   version="1.1"
   id="svg8"
   inkscape:version="1.0.2 (e86c870879, 2021-01-15)"
   sodipodi:docname="logo.svg"
   inkscape:export-filename="/home/ryzen4600h/Documents/Projekte/Website/logo.png"
   inkscape:export-xdpi="333.76227"
   inkscape:export-ydpi="333.76227">
  <defs
     id="defs2" />
  <sodipodi:namedview
     id="base"
     pagecolor="#ffffff"
     bordercolor="#666666"
     borderopacity="1.0"
     inkscape:pageopacity="0.0"
     inkscape:pageshadow="2"
     inkscape:zoom="7.2502318"
     inkscape:cx="14.182539"
     inkscape:cy="22.815685"
     inkscape:document-units="mm"
     inkscape:current-layer="text835"
     inkscape:document-rotation="0"
     showgrid="false"
     inkscape:window-width="1871"
     inkscape:window-height="1050"
     inkscape:window-x="49"
     inkscape:window-y="0"
     inkscape:window-maximized="1"
     fit-margin-top="0"
     fit-margin-left="0"
     fit-margin-right="0"
     fit-margin-bottom="0" />
  <metadata
     id="metadata5">
    <rdf:RDF>
      <cc:Work
         rdf:about="">
        <dc:format>image/svg+xml</dc:format>
        <dc:type
           rdf:resource="http://purl.org/dc/dcmitype/StillImage" />
        <dc:title />
      </cc:Work>
    </rdf:RDF>
  </metadata>
  <g
     inkscape:label="Layer 1"
     inkscape:groupmode="layer"
     id="layer1"
     transform="translate(-18.37719,-33.385104)">
    <g
       aria-label="AVOSS"
       id="text835"
       style="font-style:normal;font-variant:normal;font-weight:normal;font-stretch:normal;font-size:10.5833px;line-height:1.25;font-family:'Quicksand Light';-inkscape-font-specification:'Quicksand Light, Normal';font-variant-ligatures:normal;font-variant-caps:normal;font-variant-numeric:normal;font-variant-east-asian:normal;fill:#000000;fill-opacity:1;stroke:none;stroke-width:0.265;stroke-miterlimit:4;stroke-dasharray:none">
      <path
         d="m 24.497868,40.613501 c 0.0071,0.02117 0.01058,0.04939 0.01058,0.08467 0,0.0635 -0.02117,0.112889 -0.0635,0.148167 -0.04233,0.03528 -0.09525,0.05292 -0.15875,0.05292 -0.04939,0 -0.09525,-0.01058 -0.137583,-0.03175 -0.03528,-0.02822 -0.05997,-0.0635 -0.07408,-0.105833 l -0.888997,-2.18016 v 0 l -3.534825,0.02117 -0.857247,2.158993 c -0.03528,0.09172 -0.09878,0.137583 -0.1905,0.137583 -0.0635,0 -0.116416,-0.01764 -0.158749,-0.05292 -0.03528,-0.03528 -0.05645,-0.07761 -0.0635,-0.127 -0.0071,-0.02822 -0.0035,-0.0635 0.01058,-0.105833 l 2.846908,-7.006144 c 0.02117,-0.05645 0.04586,-0.09172 0.07408,-0.105833 0.03528,-0.02117 0.07761,-0.03175 0.126999,-0.03175 0.105833,0 0.176389,0.04586 0.211666,0.137583 z M 19.82005,38.179342 h 3.206739 l -1.619244,-3.989904 z"
         style="fill:#28869b;fill-opacity:1;stroke-width:0.265;stroke-miterlimit:4;stroke-dasharray:none;paint-order:markers stroke fill"
         id="path915"
         sodipodi:nodetypes="csssccccccscccccscccccc" />
      <path
         d="m 28.308088,33.49094 q 0.09525,0 0.148166,0.05292 0.0635,0.05292 0.0635,0.137583 0,0.04233 -0.02117,0.105833 L 25.59876,40.76167 q -0.0635,0.137583 -0.201082,0.137583 -0.0635,0 -0.127,-0.03175 -0.05292,-0.04233 -0.07408,-0.105833 L 22.31794,33.819026 q -0.03175,-0.0635 -0.03175,-0.127 0,-0.08467 0.05292,-0.137583 0.0635,-0.0635 0.148166,-0.0635 0.15875,0 0.232833,0.169333 l 2.688158,6.466396 2.698741,-6.498146 q 0.07408,-0.137583 0.201083,-0.137583 z"
         style="fill:#28869b;fill-opacity:1;stroke-width:0.265;stroke-miterlimit:4;stroke-dasharray:none;paint-order:markers stroke fill"
         id="path917" />
      <path
         d="m 35.588834,37.195095 q 0,1.111247 -0.455082,1.979077 -0.444498,0.867831 -1.248829,1.354663 -0.804331,0.476248 -1.830911,0.476248 -1.02658,0 -1.830911,-0.476248 -0.804331,-0.486832 -1.259412,-1.354663 -0.444499,-0.86783 -0.444499,-1.979077 0,-1.111246 0.444499,-1.979077 0.455081,-0.86783 1.259412,-1.344079 0.804331,-0.486832 1.830911,-0.486832 1.02658,0 1.830911,0.486832 0.804331,0.476249 1.248829,1.344079 0.455082,0.867831 0.455082,1.979077 z m -0.444498,0 q 0,-0.99483 -0.391583,-1.767411 -0.391582,-0.772581 -1.100663,-1.195913 -0.698497,-0.423332 -1.598078,-0.423332 -0.89958,0 -1.608661,0.423332 -0.698498,0.423332 -1.09008,1.195913 -0.391582,0.772581 -0.391582,1.767411 0,0.99483 0.391582,1.767411 0.391582,0.772581 1.09008,1.195913 0.709081,0.423332 1.608661,0.423332 0.899581,0 1.598078,-0.423332 0.709081,-0.423332 1.100663,-1.195913 0.391583,-0.772581 0.391583,-1.767411 z"
         style="font-style:normal;font-variant:normal;font-weight:normal;font-stretch:normal;font-size:10.5833px;font-family:'Quicksand Light';-inkscape-font-specification:'Quicksand Light, Normal';font-variant-ligatures:normal;font-variant-caps:normal;font-variant-numeric:normal;font-variant-east-asian:normal;stroke-width:0.265;stroke-miterlimit:4;stroke-dasharray:none;paint-order:markers stroke fill;fill:#ffffff;fill-opacity:1"
         id="path919" />
      <path
         d="m 39.070736,41.005083 q -0.783164,0 -1.365245,-0.264582 -0.582082,-0.275166 -1.15358,-0.846664 -0.0635,-0.0635 -0.0635,-0.15875 0,-0.08467 0.07408,-0.158749 0.07408,-0.08467 0.15875,-0.08467 0.09525,0 0.179916,0.09525 0.412749,0.486832 0.973663,0.740831 0.571499,0.253999 1.195913,0.253999 0.814914,0 1.344079,-0.391582 0.529165,-0.391582 0.529165,-1.037163 -0.01058,-0.507999 -0.275165,-0.836081 Q 40.404229,37.98884 40.012647,37.79834 39.631648,37.597258 38.9649,37.353842 38.234653,37.078676 37.821904,36.86701 q -0.402165,-0.211666 -0.698498,-0.603248 -0.285749,-0.391582 -0.285749,-1.02658 0,-0.518582 0.285749,-0.941914 0.285749,-0.423332 0.814914,-0.666748 0.529165,-0.243416 1.227663,-0.243416 0.624415,0 1.18533,0.232833 0.560914,0.222249 0.888997,0.634998 0.105833,0.148166 0.105833,0.222249 0,0.08467 -0.08467,0.15875 -0.07408,0.0635 -0.169332,0.0635 -0.08467,0 -0.137583,-0.0635 -0.296333,-0.380999 -0.761998,-0.603248 -0.465665,-0.22225 -1.02658,-0.22225 -0.804331,0 -1.344079,0.380999 -0.529165,0.380999 -0.529165,1.037163 0,0.455082 0.253999,0.772581 0.264583,0.317499 0.656165,0.518582 0.391582,0.190499 0.973663,0.402165 0.740831,0.264583 1.174747,0.486832 0.433915,0.222249 0.740831,0.645581 0.306915,0.423332 0.306915,1.12183 0,0.486832 -0.285749,0.910164 -0.285749,0.423332 -0.825497,0.677331 -0.529165,0.243416 -1.21708,0.243416 z"
         style="font-style:normal;font-variant:normal;font-weight:normal;font-stretch:normal;font-size:10.5833px;font-family:'Quicksand Light';-inkscape-font-specification:'Quicksand Light, Normal';font-variant-ligatures:normal;font-variant-caps:normal;font-variant-numeric:normal;font-variant-east-asian:normal;stroke-width:0.265;stroke-miterlimit:4;stroke-dasharray:none;paint-order:markers stroke fill;fill:#ffffff;fill-opacity:1"
         id="path921" />
      <path
         d="m 44.891543,41.005083 q -0.783164,0 -1.365246,-0.264582 -0.582081,-0.275166 -1.153579,-0.846664 -0.0635,-0.0635 -0.0635,-0.15875 0,-0.08467 0.07408,-0.158749 0.07408,-0.08467 0.158749,-0.08467 0.09525,0 0.179916,0.09525 0.412749,0.486832 0.973664,0.740831 0.571498,0.253999 1.195913,0.253999 0.814914,0 1.344079,-0.391582 0.529165,-0.391582 0.529165,-1.037163 -0.01058,-0.507999 -0.275166,-0.836081 -0.264582,-0.328082 -0.656165,-0.518582 -0.380998,-0.201082 -1.047746,-0.444498 -0.730248,-0.275166 -1.142997,-0.486832 -0.402165,-0.211666 -0.698497,-0.603248 -0.285749,-0.391582 -0.285749,-1.02658 0,-0.518582 0.285749,-0.941914 0.285749,-0.423332 0.814914,-0.666748 0.529165,-0.243416 1.227663,-0.243416 0.624414,0 1.185329,0.232833 0.560915,0.222249 0.888997,0.634998 0.105833,0.148166 0.105833,0.222249 0,0.08467 -0.08467,0.15875 -0.07408,0.0635 -0.169333,0.0635 -0.08467,0 -0.137583,-0.0635 -0.296332,-0.380999 -0.761997,-0.603248 -0.465666,-0.22225 -1.02658,-0.22225 -0.804331,0 -1.34408,0.380999 -0.529165,0.380999 -0.529165,1.037163 0,0.455082 0.254,0.772581 0.264582,0.317499 0.656164,0.518582 0.391582,0.190499 0.973664,0.402165 0.740831,0.264583 1.174746,0.486832 0.433915,0.222249 0.740831,0.645581 0.306916,0.423332 0.306916,1.12183 0,0.486832 -0.285749,0.910164 -0.285749,0.423332 -0.825498,0.677331 -0.529165,0.243416 -1.217079,0.243416 z"
         style="font-style:normal;font-variant:normal;font-weight:normal;font-stretch:normal;font-size:10.5833px;font-family:'Quicksand Light';-inkscape-font-specification:'Quicksand Light, Normal';font-variant-ligatures:normal;font-variant-caps:normal;font-variant-numeric:normal;font-variant-east-asian:normal;stroke-width:0.265;stroke-miterlimit:4;stroke-dasharray:none;paint-order:markers stroke fill;fill:#ffffff;fill-opacity:1"
         id="path923" />
    </g>
  </g>
</svg>
